<svg width="393" height="764" viewBox="0 0 393 764" fill="none" xmlns="http://www.w3.org/2000/svg">
<path d="M397.252 23.7639C424.514 17.3557 434.709 -12.2911 462 5.7364L458.254 289H-53.8443C-84.4643 228.67 -120.697 92.8752 -64.9032 88.0203C4.83924 81.9516 17.3252 130.144 77.2573 143.531C137.189 156.917 306.105 86.2354 322.872 67.3155C339.639 48.3955 344.098 36.2582 397.252 23.7639Z" fill="url(#paint0_linear_349_5418)"/>
<path d="M64.1419 79.9937C18.5093 53.5419 20.5771 8.00176 -56 6V290H462C462.832 270.697 472.731 260.367 470.735 251.216C468.239 239.777 432.411 203.495 408.346 201.172C384.282 198.848 347.577 213.003 299.969 213.003C249.702 213.003 257.902 216.006 217.26 213.003C217.26 213.003 199.507 197.198 137.582 170.788C74.3022 143.8 109.774 106.446 64.1419 79.9937Z" fill="url(#paint1_linear_349_5418)"/>
<path d="M66.442 179.611C27.9452 176.054 -11.9774 129.808 -74 163.959L-55.6427 289H456.935C471.609 227.517 475.147 97.1011 461.212 63.1073C451.588 39.6284 398.209 124.472 346.257 124.472C299.918 124.472 249.48 161.647 188.705 185.406C127.93 209.165 104.939 183.168 66.442 179.611Z" fill="url(#paint2_linear_349_5418)"/>
<path d="M102.5 407C64.0032 391.827 7.52261 121.84 -54.5 267.5L-69.6427 1149H442.935C457.609 886.761 461.147 330.51 447.212 185.518C437.588 85.3761 267.452 380.5 215.5 380.5C169.161 380.5 207.275 313.662 146.5 415C85.725 516.338 140.997 422.173 102.5 407Z" fill="url(#paint3_linear_349_5418)"/>
<defs>
<linearGradient id="paint0_linear_349_5418" x1="178.212" y1="30.725" x2="178.212" y2="289" gradientUnits="userSpaceOnUse">
<stop stop-color="#7849DD"/>
<stop offset="1" stop-color="#D9D9D9" stop-opacity="0"/>
</linearGradient>
<linearGradient id="paint1_linear_349_5418" x1="175.549" y1="86.4279" x2="175.566" y2="290" gradientUnits="userSpaceOnUse">
<stop stop-color="#A3A1F3"/>
<stop offset="1" stop-color="#D9D9D9" stop-opacity="0"/>
</linearGradient>
<linearGradient id="paint2_linear_349_5418" x1="211.031" y1="100.316" x2="211.031" y2="289" gradientUnits="userSpaceOnUse">
<stop stop-color="#584CDA"/>
<stop offset="1" stop-color="#D9D9D9" stop-opacity="0"/>
</linearGradient>
<linearGradient id="paint3_linear_349_5418" x1="176.5" y1="-147.5" x2="197.032" y2="1149" gradientUnits="userSpaceOnUse">
<stop stop-color="#584CDA"/>
<stop offset="1" stop-color="#D9D9D9" stop-opacity="0"/>
</linearGradient>
</defs>
</svg>
