<svg width="22" height="22" viewBox="0 0 22 22" fill="none" xmlns="http://www.w3.org/2000/svg">
<path d="M6.55417 19.3417C6.325 19.1126 6.21042 18.8412 6.21042 18.5277C6.21042 18.2149 6.325 17.9438 6.55417 17.7147L13.2688 11.0001L6.53125 4.26258C6.31736 4.04869 6.21042 3.78133 6.21042 3.4605C6.21042 3.13966 6.325 2.86466 6.55417 2.6355C6.78334 2.40633 7.05467 2.29175 7.36817 2.29175C7.68106 2.29175 7.95209 2.40633 8.18125 2.6355L15.8813 10.3584C15.9729 10.4501 16.038 10.5494 16.0765 10.6563C16.1144 10.7633 16.1333 10.8779 16.1333 11.0001C16.1333 11.1223 16.1144 11.2369 16.0765 11.3438C16.038 11.4508 15.9729 11.5501 15.8813 11.6417L8.15833 19.3647C7.94445 19.5786 7.68106 19.6855 7.36817 19.6855C7.05467 19.6855 6.78334 19.5709 6.55417 19.3417Z" fill="black"/>
</svg>
