<svg width="22" height="22" viewBox="0 0 22 22" fill="none" xmlns="http://www.w3.org/2000/svg">
<path d="M11.2292 13.4298L6.84521 14.2189L7.57588 9.77647L15.9493 1.43226C16.0852 1.29529 16.2468 1.18658 16.4249 1.11239C16.6029 1.0382 16.7939 1 16.9869 1C17.1798 1 17.3708 1.0382 17.5489 1.11239C17.7269 1.18658 17.8886 1.29529 18.0244 1.43226L19.5734 2.98127C19.7104 3.11712 19.8191 3.27875 19.8933 3.45682C19.9675 3.6349 20.0057 3.82591 20.0057 4.01882C20.0057 4.21173 19.9675 4.40274 19.8933 4.58081C19.8191 4.75889 19.7104 4.92051 19.5734 5.05636L11.2292 13.4298Z" stroke="#000001" stroke-width="2" stroke-linecap="round" stroke-linejoin="round"/>
<path d="M17.8053 14.1607V18.5447C17.8053 18.9322 17.6514 19.3039 17.3773 19.578C17.1033 19.852 16.7316 20.006 16.344 20.006H2.46133C2.07376 20.006 1.70207 19.852 1.42801 19.578C1.15396 19.3039 1 18.9322 1 18.5447V4.66202C1 4.27445 1.15396 3.90275 1.42801 3.6287C1.70207 3.35464 2.07376 3.20068 2.46133 3.20068H6.84533" stroke="#000001" stroke-width="2" stroke-linecap="round" stroke-linejoin="round"/>
</svg>
